<svg width="192" height="192" viewBox="0 0 192 192" fill="none" xmlns="http://www.w3.org/2000/svg">
<rect width="192" height="192" rx="16" fill="#FAFAFA"/>
<path d="M47 145.69C52.628 145.2 56.0292 144.369 57.2037 143.194C58.3783 141.971 59.0879 140.649 59.3326 139.23C59.5773 137.762 59.6996 135.853 59.6996 133.504V57.7468C59.6996 53.0487 59.1368 50.1613 58.0112 49.0846C56.9346 47.9591 55.5398 47.2005 53.827 46.809C52.163 46.4175 49.8874 46.0994 47 45.8547V39.4682H66.0861C69.3161 39.4682 72.9376 39.2969 76.9506 38.9543C84.3403 38.3181 90.8247 38 96.4037 38C102.032 38 107.488 38.5873 112.774 39.7618C118.059 40.9363 122.39 42.6002 125.767 44.7536C132.325 48.9134 135.604 54.8839 135.604 62.6652C135.604 72.6487 131.835 80.5278 124.299 86.3026C121.803 88.2112 118.842 89.7528 115.416 90.9273C130 93.3743 139.25 99.2959 143.165 108.692C144.388 111.628 145 115.128 145 119.19C145 123.202 144.07 127.387 142.21 131.742C140.4 136.049 137.561 139.842 133.695 143.121C125.229 150.364 113.239 153.985 97.7251 153.985C93.8589 153.985 89.6012 153.74 84.9521 153.251C76.3878 152.272 70.0991 151.783 66.0861 151.783H47V145.69ZM74.6015 130.348C74.6015 135.241 75.8005 138.765 78.1985 140.918C81.6242 143.953 88.231 145.47 98.0187 145.47C109.177 145.47 117.252 142.974 122.243 137.982C126.354 133.871 128.41 128.243 128.41 121.098C128.41 110.674 124.47 103.333 116.591 99.0757C113.655 97.4607 110.718 96.5553 107.782 96.3595C104.846 96.1149 102.57 95.9436 100.955 95.8457L95.9633 95.5521C94.2504 95.4542 92.562 95.3808 90.8981 95.3318C89.2831 95.234 87.7416 95.1361 86.2734 95.0382V88.1378L101.469 87.1835C107.88 86.5473 112.578 83.7578 115.563 78.815C117.863 75.0467 119.013 70.1283 119.013 64.0599C119.013 58.2851 117.398 53.9541 114.169 51.0667C110.253 47.592 103.549 45.8547 94.0547 45.8547C82.603 45.8547 76.2899 48.9134 75.1154 55.0307C74.7728 56.8414 74.6015 58.799 74.6015 60.9034V130.348Z" fill="#0061EB"/>
</svg>
