<svg width="16" height="16" viewBox="0 0 16 16" fill="none" xmlns="http://www.w3.org/2000/svg">
    <path fill-rule="evenodd" clip-rule="evenodd" d="M6.74967 2.46952C7.94166 2.2001 9.18881 2.32322 10.3051 2.82051C10.8096 3.04525 11.4008 2.81847 11.6255 2.31398C11.8502 1.80949 11.6235 1.21833 11.119 0.99359C9.6087 0.320795 7.92141 0.154225 6.30875 0.518727C4.69608 0.883228 3.24445 1.75927 2.17035 3.01619C1.09625 4.27312 0.457229 5.84358 0.348603 7.49335C0.239976 9.14313 0.667559 10.7838 1.56758 12.1707C2.4676 13.5576 3.79184 14.6164 5.34279 15.1892C6.89374 15.7621 8.5883 15.8182 10.1737 15.3492C11.7592 14.8802 13.1506 13.9113 14.1403 12.587C15.1301 11.2627 15.6653 9.65384 15.666 8.00049V7.38705C15.666 6.83476 15.2183 6.38705 14.666 6.38705C14.1138 6.38705 13.666 6.83476 13.666 7.38705V7.9996C13.6654 9.2215 13.2698 10.4109 12.5383 11.3897C11.8067 12.3685 10.7783 13.0847 9.60645 13.4313C8.43459 13.778 7.18206 13.7365 6.03569 13.3131C4.88932 12.8897 3.91052 12.1071 3.24528 11.082C2.58004 10.0569 2.26399 8.84417 2.34428 7.62475C2.42457 6.40534 2.8969 5.24454 3.69081 4.3155C4.48472 3.38645 5.55768 2.73894 6.74967 2.46952ZM15.3734 3.37378C15.7638 2.98308 15.7635 2.34992 15.3728 1.95957C14.9821 1.56922 14.3489 1.56951 13.9586 1.96021L7.99871 7.92546L6.70613 6.63289C6.31561 6.24236 5.68244 6.24236 5.29192 6.63289C4.90139 7.02341 4.90139 7.65658 5.29192 8.0471L7.29192 10.0471C7.47951 10.2347 7.73395 10.3401 7.99925 10.34C8.26454 10.3399 8.51894 10.2345 8.70645 10.0468L15.3734 3.37378Z" fill="#4AC99B"/>
</svg>
