<svg width="146" height="54" viewBox="0 0 146 54" fill="none" xmlns="http://www.w3.org/2000/svg">
    <path d="M54.1057 48.8573V37.6282H55.8327V48.8573H54.1057ZM54.9838 35.7567C54.6472 35.7567 54.3569 35.6421 54.113 35.4131C53.874 35.184 53.7544 34.9086 53.7544 34.587C53.7544 34.2653 53.874 33.9899 54.113 33.7609C54.3569 33.5318 54.6472 33.4173 54.9838 33.4173C55.3204 33.4173 55.6083 33.5318 55.8473 33.7609C56.0912 33.9899 56.2132 34.2653 56.2132 34.587C56.2132 34.9086 56.0912 35.184 55.8473 35.4131C55.6083 35.6421 55.3204 35.7567 54.9838 35.7567Z" fill="#010319"/>
    <path d="M60.7228 42.1023V48.8573H58.9958V37.6282H60.6642V39.3828H60.8106C61.074 38.8125 61.4741 38.3544 62.0107 38.0084C62.5473 37.6574 63.2401 37.482 64.0889 37.482C64.85 37.482 65.5159 37.6379 66.0867 37.9499C66.6574 38.2569 67.1014 38.7248 67.4185 39.3535C67.7356 39.9773 67.8941 40.7669 67.8941 41.7222V48.8573H66.1672V41.8391C66.1672 40.957 65.9379 40.2698 65.4793 39.7775C65.0207 39.2804 64.3914 39.0318 63.5913 39.0318C63.04 39.0318 62.5473 39.1512 62.1131 39.3901C61.6838 39.6289 61.3448 39.9773 61.096 40.4355C60.8472 40.8936 60.7228 41.4492 60.7228 42.1023Z" fill="#010319"/>
    <path d="M79.0116 40.1431L77.4603 40.5817C77.3627 40.3234 77.2188 40.0724 77.0285 39.8287C76.8431 39.5801 76.5894 39.3754 76.2675 39.2146C75.9455 39.0538 75.5332 38.9734 75.0308 38.9734C74.3429 38.9734 73.7697 39.1318 73.3111 39.4485C72.8574 39.7605 72.6306 40.1577 72.6306 40.6402C72.6306 41.0691 72.7867 41.4078 73.0989 41.6564C73.4111 41.9049 73.899 42.1121 74.5624 42.2778L76.2309 42.6872C77.2358 42.9308 77.9847 43.3037 78.4774 43.8057C78.9701 44.3028 79.2165 44.9437 79.2165 45.7284C79.2165 46.3717 79.0311 46.9468 78.6604 47.4537C78.2945 47.9606 77.7822 48.3602 77.1236 48.6526C76.465 48.9451 75.6991 49.0913 74.8259 49.0913C73.6794 49.0913 72.7306 48.8427 71.9793 48.3456C71.228 47.8485 70.7523 47.1223 70.5523 46.167L72.1915 45.7576C72.3476 46.362 72.6427 46.8152 73.0769 47.1174C73.516 47.4196 74.0892 47.5707 74.7966 47.5707C75.6016 47.5707 76.2406 47.4001 76.7138 47.0589C77.1919 46.7129 77.431 46.2986 77.431 45.8161C77.431 45.4262 77.2944 45.0997 77.0212 44.8365C76.748 44.5684 76.3284 44.3686 75.7625 44.237L73.8892 43.7984C72.8598 43.5547 72.1037 43.177 71.6207 42.6652C71.1426 42.1486 70.9036 41.5028 70.9036 40.7279C70.9036 40.0943 71.0816 39.5338 71.4378 39.0465C71.7988 38.5591 72.2891 38.1765 72.9086 37.8987C73.5331 37.6209 74.2405 37.482 75.0308 37.482C76.1431 37.482 77.0163 37.7257 77.6505 38.213C78.2896 38.7004 78.7433 39.3438 79.0116 40.1431Z" fill="#010319"/>
    <path d="M88.8997 44.2663V37.6282H90.6267V48.8573H88.8997V46.9566H88.7826C88.5192 47.5268 88.1094 48.0117 87.5532 48.4114C86.9971 48.8062 86.2946 49.0035 85.4457 49.0035C84.7432 49.0035 84.1188 48.85 83.5724 48.543C83.026 48.2311 82.5967 47.7632 82.2845 47.1393C81.9723 46.5106 81.8161 45.7186 81.8161 44.7634V37.6282H83.5431V44.6464C83.5431 45.4652 83.7724 46.1183 84.231 46.6057C84.6944 47.093 85.2847 47.3367 86.0019 47.3367C86.4312 47.3367 86.8678 47.2271 87.3118 47.0077C87.7606 46.7884 88.1362 46.4521 88.4387 45.9989C88.746 45.5456 88.8997 44.9681 88.8997 44.2663Z" fill="#010319"/>
    <path d="M93.7898 48.8573V37.6282H95.4582V39.3243H95.5753C95.7802 38.7687 96.151 38.3178 96.6876 37.9718C97.2242 37.6258 97.8292 37.4527 98.5024 37.4527C98.6292 37.4527 98.7878 37.4552 98.9781 37.4601C99.1683 37.4649 99.3122 37.4722 99.4098 37.482V39.2365C99.3513 39.2219 99.2171 39.2 99.0073 39.1707C98.8024 39.1366 98.5853 39.1196 98.3561 39.1196C97.8097 39.1196 97.3218 39.2341 96.8925 39.4632C96.4681 39.6874 96.1315 39.9993 95.8827 40.3989C95.6387 40.7937 95.5168 41.2445 95.5168 41.7514V48.8573H93.7898Z" fill="#010319"/>
    <path d="M104.765 49.1205C104.052 49.1205 103.406 48.9865 102.825 48.7184C102.245 48.4455 101.784 48.0532 101.442 47.5414C101.101 47.0248 100.93 46.401 100.93 45.6699C100.93 45.0266 101.057 44.5051 101.311 44.1054C101.564 43.7009 101.903 43.3841 102.328 43.155C102.752 42.926 103.221 42.7554 103.733 42.6433C104.25 42.5263 104.769 42.4337 105.291 42.3655C105.974 42.2778 106.528 42.212 106.953 42.1681C107.382 42.1194 107.694 42.0389 107.889 41.9268C108.089 41.8148 108.189 41.6198 108.189 41.342V41.2835C108.189 40.5622 107.992 40.0017 107.597 39.6021C107.206 39.2024 106.614 39.0026 105.818 39.0026C104.994 39.0026 104.347 39.1829 103.879 39.5436C103.411 39.9042 103.081 40.2893 102.891 40.6987L101.252 40.1138C101.545 39.4315 101.935 38.9002 102.423 38.5201C102.916 38.1351 103.452 37.867 104.033 37.7159C104.618 37.56 105.194 37.482 105.76 37.482C106.121 37.482 106.535 37.5258 107.004 37.6136C107.477 37.6964 107.933 37.8694 108.372 38.1326C108.816 38.3958 109.184 38.793 109.477 39.3243C109.77 39.8555 109.916 40.5671 109.916 41.459V48.8573H108.189V47.3367H108.101C107.984 47.5804 107.789 47.8412 107.516 48.119C107.243 48.3968 106.879 48.6331 106.426 48.8281C105.972 49.023 105.418 49.1205 104.765 49.1205ZM105.028 47.5707C105.711 47.5707 106.287 47.4366 106.755 47.1686C107.228 46.9005 107.584 46.5545 107.823 46.1305C108.067 45.7065 108.189 45.2605 108.189 44.7926V43.2135C108.116 43.3013 107.955 43.3817 107.706 43.4548C107.462 43.523 107.179 43.5839 106.857 43.6375C106.54 43.6863 106.231 43.7301 105.928 43.7691C105.63 43.8032 105.389 43.8325 105.204 43.8569C104.755 43.9153 104.335 44.0104 103.945 44.142C103.56 44.2687 103.247 44.4612 103.008 44.7195C102.774 44.9729 102.657 45.319 102.657 45.7576C102.657 46.3571 102.879 46.8104 103.323 47.1174C103.772 47.4196 104.34 47.5707 105.028 47.5707Z" fill="#010319"/>
    <path d="M114.795 42.1023V48.8573H113.068V37.6282H114.737V39.3828H114.883C115.147 38.8125 115.547 38.3544 116.083 38.0084C116.62 37.6574 117.313 37.482 118.162 37.482C118.923 37.482 119.588 37.6379 120.159 37.9499C120.73 38.2569 121.174 38.7248 121.491 39.3535C121.808 39.9773 121.967 40.7669 121.967 41.7222V48.8573H120.24V41.8391C120.24 40.957 120.01 40.2698 119.552 39.7775C119.093 39.2804 118.464 39.0318 117.664 39.0318C117.113 39.0318 116.62 39.1512 116.186 39.3901C115.756 39.6289 115.417 39.9773 115.169 40.4355C114.92 40.8936 114.795 41.4492 114.795 42.1023Z" fill="#010319"/>
    <path d="M129.689 49.0913C128.635 49.0913 127.728 48.8427 126.967 48.3456C126.206 47.8485 125.62 47.1637 125.21 46.2913C124.801 45.4189 124.596 44.4222 124.596 43.3013C124.596 42.1608 124.805 41.1544 125.225 40.282C125.649 39.4047 126.24 38.7199 126.996 38.2277C127.757 37.7305 128.645 37.482 129.66 37.482C130.45 37.482 131.162 37.6282 131.796 37.9206C132.43 38.2131 132.95 38.6224 133.355 39.1488C133.76 39.6752 134.011 40.2893 134.109 40.9911H132.382C132.25 40.4793 131.957 40.0261 131.504 39.6313C131.055 39.2317 130.45 39.0318 129.689 39.0318C129.016 39.0318 128.425 39.2073 127.918 39.5582C127.415 39.9042 127.023 40.3941 126.74 41.0276C126.462 41.6564 126.323 42.3947 126.323 43.2428C126.323 44.1103 126.459 44.8657 126.732 45.5091C127.01 46.1524 127.401 46.652 127.903 47.0077C128.411 47.3635 129.006 47.5414 129.689 47.5414C130.138 47.5414 130.545 47.4634 130.911 47.3075C131.277 47.1515 131.587 46.9273 131.84 46.6349C132.094 46.3425 132.274 45.9916 132.382 45.5822H134.109C134.011 46.245 133.77 46.842 133.384 47.3733C133.004 47.8996 132.499 48.3188 131.869 48.6307C131.245 48.9378 130.518 49.0913 129.689 49.0913Z" fill="#010319"/>
    <path d="M141.346 49.0913C140.263 49.0913 139.329 48.8525 138.543 48.3748C137.763 47.8923 137.16 47.2197 136.736 46.3571C136.316 45.4896 136.106 44.4807 136.106 43.3305C136.106 42.1803 136.316 41.1665 136.736 40.2893C137.16 39.4071 137.75 38.7199 138.507 38.2277C139.268 37.7305 140.156 37.482 141.17 37.482C141.756 37.482 142.334 37.5795 142.905 37.7744C143.475 37.9694 143.995 38.2862 144.463 38.7248C144.932 39.1586 145.305 39.7337 145.583 40.4501C145.861 41.1665 146 42.0487 146 43.0966V43.8276H137.336V42.3362H144.244C144.244 41.7027 144.117 41.1373 143.863 40.6402C143.614 40.1431 143.258 39.7507 142.795 39.4632C142.336 39.1756 141.795 39.0318 141.17 39.0318C140.482 39.0318 139.887 39.2024 139.385 39.5436C138.887 39.8799 138.504 40.3185 138.236 40.8595C137.968 41.4005 137.833 41.9805 137.833 42.5994V43.5937C137.833 44.4417 137.98 45.1606 138.272 45.7503C138.57 46.3352 138.982 46.7811 139.509 47.0882C140.036 47.3903 140.648 47.5414 141.346 47.5414C141.8 47.5414 142.209 47.4781 142.575 47.3513C142.946 47.2197 143.266 47.0248 143.534 46.7665C143.802 46.5033 144.01 46.1768 144.156 45.7869L145.824 46.2547C145.649 46.8201 145.354 47.3172 144.939 47.7461C144.524 48.1701 144.012 48.5015 143.402 48.7404C142.792 48.9743 142.107 49.0913 141.346 49.0913Z" fill="#010319"/>
    <path d="M62.8343 14.4476V6.56093H65.4687V20.0359H62.887V17.7023H62.7465C62.4362 18.4217 61.9386 19.0212 61.2537 19.5008C60.5746 19.9745 59.7286 20.2113 58.7159 20.2113C57.8495 20.2113 57.0826 20.0213 56.4152 19.6411C55.7537 19.2551 55.2326 18.6849 54.8521 17.9304C54.4774 17.176 54.2901 16.2431 54.2901 15.1319V6.56093H56.9157V14.8161C56.9157 15.7343 57.1704 16.4654 57.6797 17.0093C58.189 17.5532 58.8505 17.8252 59.6643 17.8252C60.156 17.8252 60.6448 17.7023 61.1307 17.4567C61.6225 17.2111 62.0293 16.8397 62.3513 16.3426C62.6792 15.8454 62.8402 15.2138 62.8343 14.4476Z" fill="#010319"/>
    <path d="M79.1038 9.85071L76.7241 10.2718C76.6246 9.96768 76.4665 9.67818 76.2499 9.4033C76.0391 9.12842 75.7523 8.90326 75.3893 8.7278C75.0264 8.55235 74.5727 8.46462 74.0282 8.46462C73.2848 8.46462 72.6642 8.6313 72.1666 8.96466C71.669 9.29218 71.4202 9.7162 71.4202 10.2367C71.4202 10.6871 71.587 11.0497 71.9207 11.3245C72.2544 11.5994 72.793 11.8246 73.5365 12L75.6791 12.4913C76.9202 12.7779 77.8452 13.2195 78.454 13.816C79.0628 14.4125 79.3673 15.1875 79.3673 16.1408C79.3673 16.9479 79.1331 17.6672 78.6647 18.2989C78.2023 18.9247 77.5554 19.4159 76.7241 19.7727C75.8987 20.1295 74.9415 20.3078 73.8526 20.3078C72.3422 20.3078 71.1099 19.9862 70.1557 19.3428C69.2015 18.6937 68.616 17.7725 68.3994 16.5794L70.9372 16.1934C71.0953 16.8543 71.4202 17.3543 71.9119 17.6936C72.4037 18.0269 73.0447 18.1936 73.835 18.1936C74.6956 18.1936 75.3835 18.0152 75.8987 17.6585C76.4138 17.2959 76.6714 16.8543 76.6714 16.3338C76.6714 15.9127 76.5133 15.5589 76.1972 15.2723C75.8869 14.9857 75.4098 14.7693 74.7659 14.6231L72.4827 14.123C71.2241 13.8365 70.2933 13.3803 69.6903 12.7545C69.0932 12.1287 68.7946 11.3362 68.7946 10.3771C68.7946 9.58168 69.0171 8.88571 69.462 8.28916C69.9069 7.69262 70.5216 7.22766 71.306 6.89429C72.0905 6.55508 72.9891 6.38547 74.0019 6.38547C75.4596 6.38547 76.607 6.70129 77.4442 7.33293C78.2813 7.95872 78.8345 8.79798 79.1038 9.85071Z" fill="#010319"/>
    <path d="M82.2541 20.0359V6.56093H84.8797V20.0359H82.2541ZM83.5801 4.48178C83.1235 4.48178 82.7312 4.32972 82.4034 4.0256C82.0814 3.71563 81.9204 3.34717 81.9204 2.92023C81.9204 2.48744 82.0814 2.11899 82.4034 1.81486C82.7312 1.50489 83.1235 1.34991 83.5801 1.34991C84.0367 1.34991 84.426 1.50489 84.748 1.81486C85.0758 2.11899 85.2397 2.48744 85.2397 2.92023C85.2397 3.34717 85.0758 3.71563 84.748 4.0256C84.426 4.32972 84.0367 4.48178 83.5801 4.48178Z" fill="#010319"/>
    <path d="M91.0376 12.0351V20.0359H88.412V6.56093H90.9322V8.75412H91.0991C91.4093 8.0406 91.8952 7.46745 92.5567 7.03466C93.2241 6.60187 94.0642 6.38547 95.077 6.38547C95.9961 6.38547 96.801 6.57847 97.4918 6.96448C98.1826 7.34463 98.7183 7.91193 99.0988 8.66639C99.4793 9.42085 99.6696 10.3537 99.6696 11.4649V20.0359H97.044V11.7807C97.044 10.804 96.7893 10.0408 96.28 9.49103C95.7707 8.93542 95.0711 8.65762 94.1813 8.65762C93.5724 8.65762 93.0309 8.78921 92.5567 9.05239C92.0884 9.31557 91.7167 9.70158 91.4415 10.2104C91.1722 10.7134 91.0376 11.3216 91.0376 12.0351Z" fill="#010319"/>
    <path d="M109.004 20.3078C107.675 20.3078 106.531 20.0242 105.571 19.4569C104.616 18.8837 103.879 18.0796 103.358 17.0444C102.843 16.0033 102.585 14.7839 102.585 13.3861C102.585 12.0059 102.843 10.7894 103.358 9.73667C103.879 8.68394 104.605 7.86222 105.535 7.27152C106.472 6.68082 107.567 6.38547 108.82 6.38547C109.581 6.38547 110.318 6.51122 111.033 6.7627C111.747 7.01419 112.388 7.40896 112.956 7.94702C113.524 8.48509 113.971 9.18398 114.299 10.0437C114.627 10.8976 114.791 11.9357 114.791 13.158V14.088H104.069V12.1229H112.218C112.218 11.4327 112.078 10.8216 111.797 10.2894C111.516 9.75129 111.12 9.32727 110.611 9.0173C110.108 8.70733 109.516 8.55235 108.837 8.55235C108.1 8.55235 107.456 8.73365 106.905 9.09626C106.361 9.45302 105.939 9.9209 105.641 10.4999C105.348 11.0731 105.202 11.6959 105.202 12.3685V13.9037C105.202 14.8044 105.36 15.5706 105.676 16.2022C105.998 16.8338 106.446 17.3163 107.02 17.6497C107.593 17.9772 108.264 18.141 109.03 18.141C109.528 18.141 109.982 18.0708 110.392 17.9304C110.801 17.7842 111.156 17.5678 111.454 17.2812C111.753 16.9947 111.981 16.6408 112.139 16.2197L114.624 16.6671C114.425 17.3982 114.068 18.0386 113.553 18.5884C113.043 19.1323 112.402 19.5563 111.63 19.8604C110.863 20.1587 109.988 20.3078 109.004 20.3078Z" fill="#010319"/>
    <path d="M127.811 9.85071L125.432 10.2718C125.332 9.96768 125.174 9.67818 124.957 9.4033C124.747 9.12842 124.46 8.90326 124.097 8.7278C123.734 8.55235 123.28 8.46462 122.736 8.46462C121.992 8.46462 121.372 8.6313 120.874 8.96466C120.377 9.29218 120.128 9.7162 120.128 10.2367C120.128 10.6871 120.295 11.0497 120.628 11.3245C120.962 11.5994 121.501 11.8246 122.244 12L124.387 12.4913C125.628 12.7779 126.553 13.2195 127.162 13.816C127.77 14.4125 128.075 15.1875 128.075 16.1408C128.075 16.9479 127.841 17.6672 127.372 18.2989C126.91 18.9247 126.263 19.4159 125.432 19.7727C124.606 20.1295 123.649 20.3078 122.56 20.3078C121.05 20.3078 119.818 19.9862 118.863 19.3428C117.909 18.6937 117.324 17.7725 117.107 16.5794L119.645 16.1934C119.803 16.8543 120.128 17.3543 120.62 17.6936C121.111 18.0269 121.752 18.1936 122.543 18.1936C123.403 18.1936 124.091 18.0152 124.606 17.6585C125.121 17.2959 125.379 16.8543 125.379 16.3338C125.379 15.9127 125.221 15.5589 124.905 15.2723C124.595 14.9857 124.117 14.7693 123.473 14.6231L121.19 14.123C119.932 13.8365 119.001 13.3803 118.398 12.7545C117.801 12.1287 117.502 11.3362 117.502 10.3771C117.502 9.58168 117.725 8.88571 118.17 8.28916C118.614 7.69262 119.229 7.22766 120.014 6.89429C120.798 6.55508 121.697 6.38547 122.709 6.38547C124.167 6.38547 125.315 6.70129 126.152 7.33293C126.989 7.95872 127.542 8.79798 127.811 9.85071Z" fill="#010319"/>
    <path d="M141.069 9.85071L138.689 10.2718C138.59 9.96768 138.432 9.67818 138.215 9.4033C138.004 9.12842 137.717 8.90326 137.354 8.7278C136.992 8.55235 136.538 8.46462 135.993 8.46462C135.25 8.46462 134.629 8.6313 134.132 8.96466C133.634 9.29218 133.385 9.7162 133.385 10.2367C133.385 10.6871 133.552 11.0497 133.886 11.3245C134.22 11.5994 134.758 11.8246 135.502 12L137.644 12.4913C138.885 12.7779 139.81 13.2195 140.419 13.816C141.028 14.4125 141.332 15.1875 141.332 16.1408C141.332 16.9479 141.098 17.6672 140.63 18.2989C140.167 18.9247 139.521 19.4159 138.689 19.7727C137.864 20.1295 136.907 20.3078 135.818 20.3078C134.307 20.3078 133.075 19.9862 132.121 19.3428C131.167 18.6937 130.581 17.7725 130.365 16.5794L132.902 16.1934C133.06 16.8543 133.385 17.3543 133.877 17.6936C134.369 18.0269 135.01 18.1936 135.8 18.1936C136.661 18.1936 137.349 18.0152 137.864 17.6585C138.379 17.2959 138.637 16.8543 138.637 16.3338C138.637 15.9127 138.478 15.5589 138.162 15.2723C137.852 14.9857 137.375 14.7693 136.731 14.6231L134.448 14.123C133.189 13.8365 132.258 13.3803 131.655 12.7545C131.058 12.1287 130.76 11.3362 130.76 10.3771C130.76 9.58168 130.982 8.88571 131.427 8.28916C131.872 7.69262 132.487 7.22766 133.271 6.89429C134.056 6.55508 134.954 6.38547 135.967 6.38547C137.425 6.38547 138.572 6.70129 139.409 7.33293C140.246 7.95872 140.8 8.79798 141.069 9.85071Z" fill="#010319"/>
    <path d="M0 50.138C2.6228 49.9101 4.20788 49.5228 4.75525 48.9759C5.30262 48.4063 5.63332 47.7911 5.74735 47.1304C5.86139 46.4468 5.9184 45.5582 5.9184 44.4646V9.19367C5.9184 7.00633 5.65612 5.66202 5.13156 5.16076C4.62981 4.63671 3.97981 4.28354 3.18157 4.10127C2.40613 3.91899 1.34561 3.77089 0 3.65696V0.683544H8.89471C10.4 0.683544 12.0877 0.603797 13.9579 0.444304C17.4017 0.148101 20.4236 0 23.0236 0C25.6464 0 28.1894 0.273418 30.6525 0.820253C33.1157 1.36709 35.1341 2.14177 36.7078 3.1443C39.7639 5.08101 41.292 7.86076 41.292 11.4835C41.292 16.1316 39.5358 19.8 36.0236 22.4886C34.8604 23.3772 33.4806 24.0949 31.8841 24.6418C38.6806 25.781 42.9911 28.538 44.8157 32.9127C45.3858 34.2797 45.6709 35.9089 45.6709 37.8C45.6709 39.6684 45.2376 41.6165 44.3709 43.6443C43.5271 45.6494 42.2043 47.4152 40.4025 48.9418C36.4569 52.3139 30.8692 54 23.6394 54C21.8377 54 19.8534 53.8861 17.6868 53.6582C13.6956 53.2025 10.7649 52.9747 8.89471 52.9747H0V50.138ZM12.8631 42.9949C12.8631 45.2734 13.4219 46.9139 14.5394 47.9165C16.1359 49.3291 19.2149 50.0354 23.7762 50.0354C28.9762 50.0354 32.7394 48.8734 35.0657 46.5494C36.9815 44.6354 37.9394 42.0152 37.9394 38.6886C37.9394 33.8354 36.1034 30.4177 32.4315 28.4354C31.0631 27.6835 29.6946 27.262 28.3262 27.1709C26.9578 27.057 25.8973 26.9772 25.1447 26.9316L22.8183 26.7949C22.0201 26.7494 21.2333 26.7152 20.4578 26.6924C19.7052 26.6468 18.9868 26.6013 18.3026 26.5557V23.343L25.3841 22.8987C28.3718 22.6025 30.5613 21.3038 31.9525 19.0025C33.0245 17.2481 33.5604 14.9582 33.5604 12.1329C33.5604 9.4443 32.8078 7.42785 31.3025 6.08354C29.478 4.46582 26.3534 3.65696 21.9289 3.65696C16.5921 3.65696 13.65 5.08101 13.1026 7.92911C12.9429 8.77215 12.8631 9.68354 12.8631 10.6633V42.9949Z" fill="#0061EB"/>
</svg>
